<svg id="Capa_1" data-name="Capa 1" xmlns="http://www.w3.org/2000/svg" xmlns:xlink="http://www.w3.org/1999/xlink" viewBox="0 0 537.17 430"><defs><style>.cls-1{fill:url(#linear-gradient);}.cls-2{fill:none;}.cls-3,.cls-4{isolation:isolate;font-size:52px;fill:#fff;font-family:WorkSans-ExtraBold, Work Sans;font-weight:700;}.cls-4{letter-spacing:-0.01em;}.cls-5{letter-spacing:0em;}.cls-6{letter-spacing:-0.01em;}</style><linearGradient id="linear-gradient" x1="142.85" y1="-466.25" x2="415.85" y2="-192.25" gradientTransform="translate(0 554)" gradientUnits="userSpaceOnUse"><stop offset="0" stop-color="#f00b51"/><stop offset="1" stop-color="#730062"/></linearGradient></defs><title>ableWorkLogo</title><circle class="cls-1" cx="279.6" cy="225" r="190.8"/><path d="M462.9,206.4H451a77.78,77.78,0,0,0-150.8,0H261a77.85,77.85,0,0,0-152.4,0H96.3a6.1,6.1,0,0,0,0,12.2h11c-.1,1.2-.2,2.4-.2,3.7a77.8,77.8,0,1,0,155.6,0c0-1.2-.1-2.5-.2-3.7h35.6c-.2,2.2-.3,4.5-.3,6.8a77.8,77.8,0,1,0,155.6,0,50.7,50.7,0,0,0-.4-6.8h9.8a6.12,6.12,0,0,0,6.1-6.1A5.86,5.86,0,0,0,462.9,206.4Z"/><rect class="cls-2" x="124.4" y="195.7" width="116.8" height="43.5"/><text class="cls-3" transform="translate(128.33 230.69)">able</text><rect class="cls-2" x="303.2" y="196.2" width="146.4" height="42.5"/><text class="cls-4" transform="translate(307.74 231.17)">w<tspan class="cls-5" x="47.68" y="0">or</tspan><tspan class="cls-6" x="101.61" y="0">k</tspan></text></svg>