<?xml version="1.0" encoding="utf-8"?>
<!-- Generator: Adobe Illustrator 22.1.0, SVG Export Plug-In . SVG Version: 6.00 Build 0)  -->
<svg version="1.1" id="Capa_1" xmlns="http://www.w3.org/2000/svg" xmlns:xlink="http://www.w3.org/1999/xlink" x="0px" y="0px"
	 viewBox="0 0 1474 1034.5" style="enable-background:new 0 0 1474 1034.5;" xml:space="preserve">
<style type="text/css">
	.st0{fill:url(#SVGID_1_);}
	.st1{fill:none;}
	.st2{fill:#FFFFFF;}
	.st3{font-family:'AmericanTypewriter-Bold';}
	.st4{font-size:52px;}
	.st5{fill:url(#SVGID_2_);}
	.st6{font-family:'SourceSansPro-Black';}
	.st7{font-size:54px;}
	.st8{fill:url(#SVGID_3_);}
</style>
<linearGradient id="SVGID_1_" gradientUnits="userSpaceOnUse" x1="142.8511" y1="946.2498" x2="415.8511" y2="672.2498" gradientTransform="matrix(1 0 0 -1 0 1034)">
	<stop  offset="0" style="stop-color:#F00B51"/>
	<stop  offset="1" style="stop-color:#730062"/>
</linearGradient>
<circle class="st0" cx="279.6" cy="225" r="190.8"/>
<g>
	<path d="M462.9,206.4H451c-8.6-33.7-39.1-58.7-75.4-58.7s-66.8,25-75.4,58.7H261c-7.4-35.3-38.7-61.9-76.2-61.9
		c-37.4,0-68.8,26.6-76.2,61.9H96.3c-3.4,0-6.1,2.8-6.1,6.1c0,3.4,2.8,6.1,6.1,6.1h11c-0.1,1.2-0.2,2.4-0.2,3.7
		c0,42.9,34.9,77.8,77.8,77.8s77.8-34.9,77.8-77.8c0-1.2-0.1-2.5-0.2-3.7h35.6c-0.2,2.2-0.3,4.5-0.3,6.8c0,42.9,34.9,77.8,77.8,77.8
		s77.8-34.9,77.8-77.8c0-2.3-0.1-4.6-0.4-6.8h9.8c3.4,0,6.1-2.8,6.1-6.1C469.1,209.1,466.3,206.4,462.9,206.4z"/>
</g>
<rect x="124.4" y="195.7" class="st1" width="116.8" height="43.5"/>
<text transform="matrix(1 0 0 1 128.3278 230.689)" class="st2 st3 st4">able</text>
<rect x="303.2" y="196.2" class="st1" width="146.4" height="42.5"/>
<text transform="matrix(1 0 0 1 307.736 231.1707)" class="st2 st3 st4">work</text>
<circle cx="737" cy="239.2" r="190.8"/>
<g>
	
		<linearGradient id="SVGID_2_" gradientUnits="userSpaceOnUse" x1="634.3574" y1="899.5468" x2="840.6257" y2="692.5228" gradientTransform="matrix(1 0 0 -1 0 1034)">
		<stop  offset="0" style="stop-color:#F00B51"/>
		<stop  offset="1" style="stop-color:#730062"/>
	</linearGradient>
	<path class="st5" d="M920.3,220.5h-11.9c-8.6-33.7-39.1-58.7-75.4-58.7c-36.3,0-66.8,25-75.4,58.7h-39.2
		c-7.4-35.3-38.7-61.9-76.2-61.9c-37.4,0-68.8,26.6-76.2,61.9h-12.5c-3.4,0-6.1,2.8-6.1,6.1c0,3.4,2.8,6.1,6.1,6.1h11
		c-0.1,1.2-0.2,2.4-0.2,3.7c0,42.9,34.9,77.8,77.8,77.8c42.9,0,77.8-34.9,77.8-77.8c0-1.2-0.1-2.5-0.2-3.7h35.6
		c-0.2,2.2-0.3,4.5-0.3,6.8c0,42.9,34.9,77.8,77.8,77.8c42.9,0,77.8-34.9,77.8-77.8c0-2.3-0.1-4.6-0.4-6.8h9.8
		c3.4,0,6.1-2.8,6.1-6.1C926.5,223.3,923.7,220.5,920.3,220.5z"/>
</g>
<rect x="587" y="209.8" class="st1" width="112.5" height="43.5"/>
<text transform="matrix(1 0 0 1 590.8966 247.4288)" class="st2 st6 st7">able</text>
<rect x="768" y="210.3" class="st1" width="135.5" height="42.5"/>
<text transform="matrix(1 0 0 1 772.4508 247.9106)" class="st2 st6 st7">work</text>
<linearGradient id="SVGID_3_" gradientUnits="userSpaceOnUse" x1="142.8464" y1="507.7545" x2="415.8464" y2="233.7545" gradientTransform="matrix(1 0 0 -1 0 1034)">
	<stop  offset="0" style="stop-color:#F00B51"/>
	<stop  offset="1" style="stop-color:#730062"/>
</linearGradient>
<circle class="st8" cx="279.6" cy="663.5" r="190.8"/>
<g>
	<path d="M462.9,644.8H451c-8.6-33.7-39.1-58.7-75.4-58.7s-66.8,25-75.4,58.7H261c-7.4-35.3-38.7-61.9-76.2-61.9
		c-37.4,0-68.8,26.6-76.2,61.9H96.3c-3.4,0-6.1,2.8-6.1,6.1c0,3.4,2.8,6.1,6.1,6.1h11c-0.1,1.2-0.2,2.4-0.2,3.7
		c0,42.9,34.9,77.8,77.8,77.8s77.8-34.9,77.8-77.8c0-1.2-0.1-2.5-0.2-3.7h35.6c-0.2,2.2-0.3,4.5-0.3,6.8c0,42.9,34.9,77.8,77.8,77.8
		s77.8-34.9,77.8-77.8c0-2.3-0.1-4.6-0.4-6.8h9.8c3.4,0,6.1-2.8,6.1-6.1C469.1,647.6,466.3,644.8,462.9,644.8z"/>
</g>
<rect x="129.6" y="634.2" class="st1" width="112.5" height="43.5"/>
<text transform="matrix(1 0 0 1 133.5007 671.768)" class="st2 st6 st7">able</text>
<rect x="310.6" y="634.7" class="st1" width="135.5" height="42.5"/>
<text transform="matrix(1 0 0 1 315.0549 672.2498)" class="st2 st6 st7">work</text>
</svg>
